<?xml version="1.0" encoding="utf-8"?>
<!-- Generator: Adobe Illustrator 16.0.0, SVG Export Plug-In . SVG Version: 6.00 Build 0)  -->
<!DOCTYPE svg PUBLIC "-//W3C//DTD SVG 1.0//EN" "http://www.w3.org/TR/2001/REC-SVG-20010904/DTD/svg10.dtd">
<svg version="1.0" id="Layer_1" xmlns="http://www.w3.org/2000/svg" xmlns:xlink="http://www.w3.org/1999/xlink" x="0px" y="0px"
	 width="114px" height="23px" viewBox="0 0 114 23" enable-background="new 0 0 114 23" xml:space="preserve">
<g>
	<linearGradient id="SVGID_1_" gradientUnits="userSpaceOnUse" x1="0.4463" y1="12.3096" x2="112.8896" y2="12.3096">
		<stop  offset="0.271" style="stop-color:#FDC70C"/>
		<stop  offset="0.6207" style="stop-color:#E68C38"/>
		<stop  offset="0.9754" style="stop-color:#F4943D"/>
	</linearGradient>
	<path fill="url(#SVGID_1_)" d="M81.934,16.402l2.056-0.227c2.848-0.232,5.709-0.232,8.557,0h1.682h2.952h2.803
		c0.145,0,0.262-0.119,0.262-0.266c0.042-0.14-0.036-0.287-0.174-0.33c-0.017-0.006-0.034-0.009-0.051-0.01h-2.316l-6.091-0.379
		h-0.449c-0.357,0.068-0.725,0.068-1.084,0c0.461-0.037,0.923-0.037,1.383,0h2.467h3.177c0.369,0.134,0.775-0.061,0.907-0.436
		c0.012-0.03,0.021-0.063,0.027-0.094c0.028-0.073,0.028-0.154,0-0.228l0,0h-1.047l-2.392-0.265h-2.317h-0.336
		c0.348-0.037,0.699-0.037,1.047,0h0.224h1.719h3.438h4.372h0.784c0.54,0.137,1.105,0.137,1.645,0
		c0.592-0.188,1.212-0.265,1.83-0.228c0.424,0.035,0.849,0.035,1.271,0h0.374c0.313,0.005,0.622-0.073,0.896-0.228
		c0.509-0.297,1.097-0.429,1.682-0.378h1.644c0.021-0.062,0.021-0.128,0-0.189v-0.53c0.002-0.133-0.095-0.246-0.224-0.265h-0.896
		c-0.64-0.014-1.276-0.077-1.906-0.188c-1.876-0.431-3.794-0.646-5.718-0.644c-0.134,0.041-0.276,0.041-0.41,0
		c-0.289-0.452-0.831-0.666-1.346-0.53h-1.794c-1.42,0-2.914,0-4.371,0c-1.458,0-3.737,0-5.905-0.303
		c-2.167-0.303-3.475-0.303-5.381-0.644c-0.942-0.217-1.912-0.293-2.877-0.227h-0.859c-1.241,0.328-2.554,0.234-3.736-0.265
		c-0.606-0.382-1.399-0.234-1.831,0.341c-0.145,0.055-0.305,0.055-0.449,0h-0.561c-0.734-0.196-1.507-0.196-2.241,0h-0.263h-0.261
		l-0.299-0.038c-0.245-0.067-0.503-0.067-0.748,0c-0.868,0.114-1.748,0.114-2.615,0c-1.249-0.225-2.532-0.133-3.737,0.265h-3.214
		h-6.875h-0.71c-1.88-0.071-3.736-0.455-5.493-1.135c-0.686-0.25-1.403-0.403-2.13-0.455l-6.427-0.34h-4.634
		C34.177,8,33.58,8,32.87,8h-2.84c-1.196,0-2.429,0-3.737,0c-3.326,0.417-7.063,0.417-10.388,0.378h-0.411
		C12.266,8.41,9.049,8.765,5.89,9.438c-0.299,0-0.822,0-0.822,0.795c-0.004,0.063-0.004,0.126,0,0.189l-0.261,0.227
		c-0.381,0.171-0.783,0.285-1.196,0.341l-1.869,0.113H0.771c-0.129,0.019-0.226,0.132-0.224,0.265
		c-0.114,0.09-0.133,0.257-0.043,0.372c0.013,0.017,0.027,0.031,0.043,0.044l1.121,0.567l2.018,1.06
		c1.903,1.021,4.014,1.578,6.166,1.628h2.13c0.784-0.043,1.57-0.043,2.354,0l9.267,0.53h3.4h0.336c2.388,0.46,4.825,0.6,7.25,0.416
		l3.326-0.189c1.57,0,3.213-0.227,4.82-0.266h18.497c3.737,0,7.886,0,11.958,0.342c1.346,0,2.69,0.265,3.998,0.453l1.944,0.266
		c0.334,0.037,0.673,0.037,1.008,0L81.934,16.402z"/>
</g>
</svg>
